<svg xmlns="http://www.w3.org/2000/svg" version="1.1" xmlns:xlink="http://www.w3.org/1999/xlink" xmlns:svgjs="http://svgjs.dev/svgjs" width="1000" height="1125" viewBox="0 0 1000 1125"><g transform="matrix(1,0,0,1,0.0005762637636053114,0)"><svg viewBox="0 0 320 360" data-background-color="#ffffff" preserveAspectRatio="xMidYMid meet" height="1125" width="1000" xmlns="http://www.w3.org/2000/svg" xmlns:xlink="http://www.w3.org/1999/xlink"><defs></defs><g id="tight-bounds" transform="matrix(1,0,0,1,0.00018440440442191175,0)"><svg viewBox="0 0 320 360" height="360" width="320"><g><svg></svg></g><g><svg viewBox="0 0 320 360" height="360" width="320"><g><path d="M294.684 112.125c-8.775-10.699-25.381-16.201-43-22.006-7.56-2.498-15.357-5.097-22.985-8.235-7.695-3.173-15.256-7.257-22.613-11.172-14.952-8.033-30.41-16.336-46.105-16.336-15.661 0-31.119 8.303-46.071 16.336-7.358 3.949-14.952 8.033-22.648 11.205-7.594 3.139-15.425 5.704-22.985 8.236-17.618 5.839-34.224 11.341-42.999 22.006-11.712 14.277-11.442 35.439-11.172 57.817 0.034 3.375 0.068 6.717 0.067 10.024 0 3.308-0.034 6.649-0.101 10.024-0.27 22.411-0.54 43.54 11.172 57.851 8.775 10.666 25.381 16.167 42.966 22.006 7.56 2.498 15.357 5.097 23.019 8.235 7.695 3.173 15.256 7.223 22.579 11.172 14.986 8.067 30.444 16.37 46.105 16.37 15.695 0 31.153-8.303 46.105-16.336 7.358-3.949 14.918-8.033 22.614-11.172 7.594-3.139 15.357-5.704 22.884-8.202 17.72-5.873 34.326-11.374 43.101-22.039 11.712-14.277 11.442-35.439 11.171-57.817-0.034-3.409-0.101-6.75-0.101-10.058 0-3.308 0.034-6.649 0.101-9.991 0.371-22.479 0.641-43.641-11.104-57.918zM305.552 103.215c-15.728-19.171-45.801-23.727-71.486-34.326-22.985-9.45-46.375-28.588-74.051-28.587-27.676 0-51.066 19.137-74.052 28.587-25.719 10.598-55.758 15.155-71.486 34.326-17.078 20.791-14.311 50.121-14.311 76.785 0 26.63-2.768 55.994 14.277 76.785 15.728 19.171 45.801 23.727 71.487 34.326 22.985 9.484 46.375 28.588 74.051 28.587 27.676 0 51.066-19.103 74.051-28.587 25.719-10.598 55.758-15.155 71.486-34.326 17.045-20.791 14.277-50.121 14.277-76.785 0.068-26.664 2.835-55.994-14.243-76.785zM309.872 189.923c0.304 23.221 0.574 45.059-12.083 60.483-9.518 11.577-26.664 17.281-44.822 23.289-7.56 2.498-15.29 5.063-22.715 8.134-7.493 3.071-14.952 7.088-22.175 10.969-15.458 8.303-31.355 16.842-48.062 16.842-16.707 0-32.604-8.539-47.995-16.808-7.257-3.915-14.75-7.932-22.243-11.003-7.527-3.105-15.256-5.67-22.748-8.134-18.192-6.008-35.338-11.712-44.823-23.289-12.623-15.391-12.353-37.262-12.083-60.415 0.034-3.375 0.101-6.683 0.101-9.991 0-3.308-0.034-6.615-0.067-9.991-0.304-23.154-0.574-45.025 12.083-60.415 9.518-11.577 26.664-17.247 44.822-23.289 7.527-2.498 15.256-5.063 22.749-8.134 7.493-3.105 14.986-7.122 22.242-11.003 15.391-8.269 31.322-16.842 47.995-16.842 16.673 0 32.604 8.539 47.995 16.808 7.257 3.915 14.75 7.932 22.243 11.003 7.493 3.105 15.256 5.637 22.715 8.134 18.158 6.008 35.338 11.712 44.822 23.289 12.657 15.425 12.387 37.262 12.083 60.416-0.034 3.409-0.101 6.717-0.101 9.99 0 3.308 0.034 6.615 0.067 9.957z" fill="#31c48d" data-fill-palette-color="tertiary"></path></g><g transform="matrix(1,0,0,1,64.00000000000001,111.16186353842471)"><svg viewBox="0 0 191.99999999999997 137.67627292315058" height="137.67627292315058" width="191.99999999999997"><g><svg viewBox="0 0 191.99999999999997 137.67627292315058" height="137.67627292315058" width="191.99999999999997"><g transform="matrix(1,0,0,1,0,82.42881302370122)"><svg viewBox="0 0 191.99999999999997 55.24745989944936" height="55.24745989944936" width="191.99999999999997"><g><svg viewBox="0 0 191.99999999999997 55.24745989944936" height="55.24745989944936" width="191.99999999999997"><g><svg viewBox="0 0 191.99999999999997 55.24745989944936" height="55.24745989944936" width="191.99999999999997"><g transform="matrix(1,0,0,1,0,0)"><svg width="191.99999999999997" viewBox="153.47999572753906 -40.5 305.94000244140625 85.02999877929688" height="55.24745989944936" data-palette-color="#ffffff"><svg></svg><svg></svg><g class="undefined-text-0" data-fill-palette-color="quaternary" id="text-0"><path d="M170.54 0v-38.16h20.12c2.927 0 5.463 0.317 7.61 0.95 2.153 0.64 3.937 1.557 5.35 2.75 1.42 1.193 2.473 2.653 3.16 4.38 0.693 1.727 1.04 3.673 1.04 5.84v0c0 2.033-0.343 3.913-1.03 5.64-0.68 1.72-1.723 3.213-3.13 4.48-1.407 1.26-3.187 2.243-5.34 2.95-2.147 0.707-4.683 1.06-7.61 1.06v0l-12.43-0.02v10.13zM178.28-16.82h12.57c1.467 0 2.75-0.177 3.85-0.53 1.1-0.347 2.02-0.843 2.76-1.49 0.74-0.64 1.293-1.42 1.66-2.34 0.367-0.92 0.55-1.94 0.55-3.06v0c0-2.267-0.737-4.03-2.21-5.29-1.473-1.26-3.677-1.89-6.61-1.89v0h-12.57zM214-14.5v0c0-1.953 0.397-3.82 1.19-5.6 0.8-1.787 1.95-3.363 3.45-4.73 1.493-1.367 3.327-2.457 5.5-3.27 2.173-0.813 4.643-1.22 7.41-1.22v0c2.753 0 5.23 0.41 7.43 1.23 2.207 0.82 4.08 1.947 5.62 3.38 1.54 1.433 2.72 3.12 3.54 5.06 0.82 1.933 1.23 4.007 1.23 6.22v0c0 0.28-0.003 0.577-0.01 0.89-0.007 0.32-0.027 0.61-0.06 0.87v0h-27.25c0.313 0.86 0.817 1.65 1.51 2.37 0.687 0.713 1.553 1.33 2.6 1.85 1.04 0.52 2.243 0.923 3.61 1.21 1.367 0.287 2.88 0.43 4.54 0.43v0c1.66 0 3.313-0.177 4.96-0.53 1.64-0.347 3.21-0.79 4.71-1.33v0l2.44 5.52c-0.947 0.44-1.903 0.827-2.87 1.16-0.967 0.333-1.977 0.61-3.03 0.83-1.047 0.22-2.143 0.387-3.29 0.5-1.147 0.113-2.357 0.17-3.63 0.17v0c-3.24 0-6.08-0.39-8.52-1.17-2.44-0.78-4.483-1.847-6.13-3.2-1.64-1.347-2.877-2.933-3.71-4.76-0.827-1.82-1.24-3.78-1.24-5.88zM222.05-17.31h19.66c-0.26-0.8-0.663-1.543-1.21-2.23-0.547-0.693-1.227-1.297-2.04-1.81-0.813-0.513-1.757-0.917-2.83-1.21-1.073-0.293-2.253-0.44-3.54-0.44v0c-1.367 0-2.613 0.157-3.74 0.47-1.12 0.307-2.103 0.72-2.95 1.24-0.847 0.52-1.55 1.123-2.11 1.81-0.567 0.68-0.98 1.403-1.24 2.17zM257.14 0v-28.81h7.22v4.15c1.6-1.187 3.287-2.21 5.06-3.07 1.773-0.867 3.537-1.527 5.29-1.98v0l2.13 6.61c-2.787 0.28-5.233 0.903-7.34 1.87-2.107 0.967-3.82 2.33-5.14 4.09v0 17.14zM280.23-3.37l3.13-5.47c1.953 1.173 4.1 2.037 6.44 2.59 2.347 0.553 4.747 0.83 7.2 0.83v0c1.667 0 3.053-0.113 4.16-0.34 1.107-0.227 1.993-0.52 2.66-0.88 0.667-0.36 1.137-0.767 1.41-1.22 0.28-0.453 0.42-0.917 0.42-1.39v0c0-0.687-0.297-1.273-0.89-1.76-0.593-0.487-1.577-0.73-2.95-0.73v0c-0.633 0-1.317 0.04-2.05 0.12-0.733 0.08-1.5 0.167-2.3 0.26-0.807 0.087-1.647 0.17-2.52 0.25-0.867 0.08-1.75 0.12-2.65 0.12v0c-1.953 0-3.617-0.21-4.99-0.63-1.373-0.427-2.493-1.003-3.36-1.73-0.86-0.733-1.487-1.6-1.88-2.6-0.387-1.007-0.58-2.087-0.58-3.24v0c0-1.467 0.34-2.817 1.02-4.05 0.687-1.24 1.663-2.31 2.93-3.21 1.273-0.907 2.807-1.61 4.6-2.11 1.8-0.507 3.807-0.76 6.02-0.76v0c1.16 0 2.37 0.07 3.63 0.21 1.26 0.133 2.5 0.317 3.72 0.55 1.22 0.227 2.393 0.49 3.52 0.79 1.12 0.3 2.113 0.62 2.98 0.96v0l-2.28 5.62c-1.833-0.687-3.667-1.227-5.5-1.62-1.833-0.4-3.717-0.6-5.65-0.6v0c-1.353 0-2.497 0.1-3.43 0.3-0.94 0.207-1.703 0.477-2.29 0.81-0.58 0.333-1.007 0.717-1.28 1.15-0.267 0.427-0.4 0.877-0.4 1.35v0c0 0.34 0.07 0.65 0.21 0.93 0.14 0.273 0.367 0.513 0.68 0.72 0.32 0.2 0.737 0.353 1.25 0.46 0.513 0.107 1.143 0.16 1.89 0.16v0c0.68 0 1.403-0.04 2.17-0.12 0.767-0.08 1.563-0.167 2.39-0.26 0.833-0.087 1.693-0.17 2.58-0.25 0.887-0.087 1.793-0.13 2.72-0.13v0c1.727 0 3.237 0.203 4.53 0.61 1.293 0.407 2.363 0.977 3.21 1.71 0.847 0.733 1.483 1.597 1.91 2.59 0.42 0.993 0.63 2.077 0.63 3.25v0c0 1.513-0.35 2.92-1.05 4.22-0.7 1.3-1.74 2.427-3.12 3.38-1.387 0.953-3.11 1.7-5.17 2.24-2.06 0.533-4.44 0.8-7.14 0.8v0c-1.66 0-3.263-0.1-4.81-0.3-1.547-0.207-3.02-0.483-4.42-0.83-1.4-0.353-2.713-0.767-3.94-1.24-1.227-0.467-2.347-0.97-3.36-1.51zM318-14.4v0c0-2.067 0.42-4.003 1.26-5.81 0.84-1.807 2.037-3.387 3.59-4.74 1.553-1.353 3.433-2.42 5.64-3.2 2.2-0.78 4.677-1.17 7.43-1.17v0c2.753 0 5.23 0.39 7.43 1.17 2.207 0.78 4.087 1.847 5.64 3.2 1.56 1.353 2.757 2.933 3.59 4.74 0.84 1.807 1.26 3.743 1.26 5.81v0c0 2.067-0.42 4.003-1.26 5.81-0.833 1.807-2.03 3.383-3.59 4.73-1.553 1.353-3.433 2.42-5.64 3.2-2.2 0.78-4.677 1.17-7.43 1.17v0c-2.753 0-5.23-0.39-7.43-1.17-2.207-0.78-4.087-1.847-5.64-3.2-1.553-1.347-2.75-2.923-3.59-4.73-0.84-1.807-1.26-3.743-1.26-5.81zM325.59-14.4v0c0 1.153 0.233 2.247 0.7 3.28 0.467 1.033 1.143 1.943 2.03 2.73 0.887 0.793 1.967 1.42 3.24 1.88 1.28 0.467 2.733 0.7 4.36 0.7v0c1.627 0 3.08-0.233 4.36-0.7 1.28-0.46 2.363-1.087 3.25-1.88 0.887-0.787 1.56-1.697 2.02-2.73 0.467-1.033 0.7-2.127 0.7-3.28v0c0-1.16-0.233-2.26-0.7-3.3-0.46-1.04-1.133-1.957-2.02-2.75-0.887-0.787-1.97-1.413-3.25-1.88-1.28-0.46-2.733-0.69-4.36-0.69v0c-1.627 0-3.08 0.23-4.36 0.69-1.273 0.467-2.353 1.093-3.24 1.88-0.887 0.793-1.563 1.71-2.03 2.75-0.467 1.04-0.7 2.14-0.7 3.3zM361.14 0v-28.81h7.23v2.44c1.92-1.087 3.753-1.85 5.5-2.29 1.753-0.44 3.467-0.66 5.14-0.66v0c2.2 0 4.237 0.32 6.11 0.96 1.867 0.647 3.483 1.603 4.85 2.87 1.367 1.273 2.437 2.857 3.21 4.75 0.773 1.893 1.16 4.087 1.16 6.58v0 14.16h-7.2v-12.99c0-1.58-0.223-2.99-0.67-4.23-0.447-1.247-1.09-2.297-1.93-3.15-0.84-0.86-1.857-1.513-3.05-1.96-1.193-0.447-2.533-0.67-4.02-0.67v0c-0.78 0-1.58 0.083-2.4 0.25-0.82 0.16-1.627 0.39-2.42 0.69-0.787 0.3-1.547 0.673-2.28 1.12-0.733 0.453-1.4 0.963-2 1.53v0 19.41zM401.84-9.08v0c0-1.387 0.3-2.65 0.9-3.79 0.607-1.14 1.51-2.12 2.71-2.94 1.207-0.82 2.71-1.453 4.51-1.9 1.793-0.447 3.887-0.67 6.28-0.67v0c1.773 0 3.643 0.13 5.61 0.39 1.96 0.26 3.98 0.657 6.06 1.19v0c-0.08-0.907-0.357-1.747-0.83-2.52-0.473-0.773-1.127-1.443-1.96-2.01-0.84-0.56-1.85-0.993-3.03-1.3-1.18-0.313-2.52-0.47-4.02-0.47v0c-0.813 0-1.707 0.05-2.68 0.15-0.98 0.1-1.99 0.247-3.03 0.44-1.04 0.193-2.07 0.437-3.09 0.73-1.013 0.293-1.96 0.643-2.84 1.05v0l-2.2-5.93c1.093-0.393 2.26-0.75 3.5-1.07 1.247-0.327 2.523-0.61 3.83-0.85 1.3-0.233 2.6-0.417 3.9-0.55 1.3-0.127 2.563-0.19 3.79-0.19v0c5.387 0 9.39 1.373 12.01 4.12 2.62 2.753 3.93 6.97 3.93 12.65v0 12.55h-7.23v-2.71c-0.747 0.44-1.563 0.857-2.45 1.25-0.887 0.387-1.85 0.727-2.89 1.02-1.047 0.293-2.167 0.527-3.36 0.7-1.2 0.167-2.467 0.25-3.8 0.25v0c-2.247 0-4.22-0.243-5.92-0.73-1.7-0.487-3.12-1.163-4.26-2.03-1.14-0.86-1.997-1.873-2.57-3.04-0.58-1.16-0.87-2.423-0.87-3.79zM409.46-9.33v0c0 0.473 0.12 0.927 0.36 1.36 0.247 0.433 0.637 0.817 1.17 1.15 0.54 0.333 1.23 0.6 2.07 0.8 0.833 0.207 1.847 0.31 3.04 0.31v0c1.267 0 2.493-0.113 3.68-0.34 1.193-0.233 2.3-0.537 3.32-0.91 1.027-0.373 1.957-0.803 2.79-1.29 0.827-0.487 1.517-0.993 2.07-1.52v0-1.27c-1.107-0.307-2.2-0.567-3.28-0.78-1.087-0.207-2.12-0.373-3.1-0.5-0.987-0.12-1.917-0.203-2.79-0.25-0.867-0.053-1.627-0.08-2.28-0.08v0c-1.347 0-2.47 0.09-3.37 0.27-0.893 0.18-1.617 0.42-2.17 0.72-0.553 0.3-0.943 0.653-1.17 1.06-0.227 0.407-0.34 0.83-0.34 1.27zM444.93 0v-40.5h7.23v40.5z" data-fill-palette-color="quaternary" fill="#ffffff" opacity="1"></path><path d="M153.48 44.02l17.92-38.16h8.21l18.45 38.16h-8.13l-3.05-6.42h-22.29l-2.95 6.42zM167.55 31.23h16.28l-8.25-17.34zM201.11 40.65l3.13-5.47c1.953 1.173 4.1 2.037 6.44 2.59 2.347 0.553 4.75 0.83 7.21 0.83v0c1.66 0 3.043-0.113 4.15-0.34 1.107-0.227 1.993-0.52 2.66-0.88 0.667-0.36 1.137-0.767 1.41-1.22 0.28-0.453 0.42-0.917 0.42-1.39v0c0-0.687-0.297-1.273-0.89-1.76-0.593-0.487-1.573-0.73-2.94-0.73v0c-0.64 0-1.323 0.04-2.05 0.12-0.733 0.08-1.503 0.167-2.31 0.26-0.807 0.087-1.647 0.17-2.52 0.25-0.867 0.08-1.747 0.12-2.64 0.12v0c-1.953 0-3.62-0.21-5-0.63-1.373-0.427-2.49-1.003-3.35-1.73-0.867-0.733-1.493-1.6-1.88-2.6-0.393-1.007-0.59-2.087-0.59-3.24v0c0-1.467 0.343-2.817 1.03-4.05 0.68-1.24 1.653-2.31 2.92-3.21 1.273-0.907 2.81-1.61 4.61-2.11 1.793-0.507 3.797-0.76 6.01-0.76v0c1.16 0 2.37 0.07 3.63 0.21 1.26 0.133 2.5 0.317 3.72 0.55 1.22 0.227 2.393 0.49 3.52 0.79 1.12 0.3 2.113 0.62 2.98 0.96v0l-2.27 5.62c-1.84-0.687-3.677-1.227-5.51-1.62-1.827-0.4-3.71-0.6-5.65-0.6v0c-1.353 0-2.497 0.1-3.43 0.3-0.933 0.207-1.693 0.477-2.28 0.81-0.587 0.333-1.013 0.717-1.28 1.15-0.273 0.427-0.41 0.877-0.41 1.35v0c0 0.34 0.07 0.65 0.21 0.93 0.14 0.273 0.367 0.513 0.68 0.72 0.32 0.2 0.737 0.353 1.25 0.46 0.513 0.107 1.143 0.16 1.89 0.16v0c0.687 0 1.41-0.04 2.17-0.12 0.767-0.08 1.567-0.167 2.4-0.26 0.827-0.087 1.683-0.17 2.57-0.25 0.887-0.087 1.793-0.13 2.72-0.13v0c1.727 0 3.237 0.203 4.53 0.61 1.293 0.407 2.363 0.977 3.21 1.71 0.847 0.733 1.483 1.597 1.91 2.59 0.42 0.993 0.63 2.077 0.63 3.25v0c0 1.513-0.35 2.92-1.05 4.22-0.7 1.3-1.74 2.427-3.12 3.38-1.387 0.953-3.11 1.7-5.17 2.24-2.053 0.533-4.433 0.8-7.14 0.8v0c-1.66 0-3.263-0.1-4.81-0.3-1.547-0.207-3.02-0.483-4.42-0.83-1.4-0.353-2.713-0.767-3.94-1.24-1.227-0.467-2.347-0.97-3.36-1.51zM238.64 40.65l3.12-5.47c1.953 1.173 4.103 2.037 6.45 2.59 2.34 0.553 4.74 0.83 7.2 0.83v0c1.66 0 3.043-0.113 4.15-0.34 1.107-0.227 1.993-0.52 2.66-0.88 0.667-0.36 1.14-0.767 1.42-1.22 0.273-0.453 0.41-0.917 0.41-1.39v0c0-0.687-0.297-1.273-0.89-1.76-0.593-0.487-1.573-0.73-2.94-0.73v0c-0.633 0-1.317 0.04-2.05 0.12-0.733 0.08-1.503 0.167-2.31 0.26-0.807 0.087-1.643 0.17-2.51 0.25-0.873 0.08-1.757 0.12-2.65 0.12v0c-1.953 0-3.617-0.21-4.99-0.63-1.38-0.427-2.5-1.003-3.36-1.73-0.86-0.733-1.487-1.6-1.88-2.6-0.393-1.007-0.59-2.087-0.59-3.24v0c0-1.467 0.343-2.817 1.03-4.05 0.68-1.24 1.657-2.31 2.93-3.21 1.267-0.907 2.8-1.61 4.6-2.11 1.8-0.507 3.807-0.76 6.02-0.76v0c1.153 0 2.36 0.07 3.62 0.21 1.267 0.133 2.51 0.317 3.73 0.55 1.22 0.227 2.39 0.49 3.51 0.79 1.127 0.3 2.12 0.62 2.98 0.96v0l-2.27 5.62c-1.84-0.687-3.673-1.227-5.5-1.62-1.833-0.4-3.72-0.6-5.66-0.6v0c-1.347 0-2.49 0.1-3.43 0.3-0.933 0.207-1.693 0.477-2.28 0.81-0.587 0.333-1.013 0.717-1.28 1.15-0.267 0.427-0.4 0.877-0.4 1.35v0c0 0.34 0.067 0.65 0.2 0.93 0.14 0.273 0.37 0.513 0.69 0.72 0.313 0.2 0.727 0.353 1.24 0.46 0.513 0.107 1.147 0.16 1.9 0.16v0c0.68 0 1.403-0.04 2.17-0.12 0.767-0.08 1.563-0.167 2.39-0.26 0.833-0.087 1.693-0.17 2.58-0.25 0.887-0.087 1.793-0.13 2.72-0.13v0c1.727 0 3.237 0.203 4.53 0.61 1.293 0.407 2.363 0.977 3.21 1.71 0.847 0.733 1.48 1.597 1.9 2.59 0.427 0.993 0.64 2.077 0.64 3.25v0c0 1.513-0.35 2.92-1.05 4.22-0.7 1.3-1.743 2.427-3.13 3.38-1.38 0.953-3.1 1.7-5.16 2.24-2.06 0.533-4.44 0.8-7.14 0.8v0c-1.66 0-3.263-0.1-4.81-0.3-1.547-0.207-3.02-0.483-4.42-0.83-1.4-0.353-2.713-0.767-3.94-1.24-1.233-0.467-2.353-0.97-3.36-1.51zM281.95 11.28v0c-0.713 0-1.36-0.1-1.94-0.3-0.58-0.207-1.073-0.483-1.48-0.83-0.407-0.353-0.72-0.763-0.94-1.23-0.22-0.46-0.33-0.95-0.33-1.47v0c0-0.54 0.11-1.04 0.33-1.5 0.22-0.467 0.533-0.87 0.94-1.21 0.407-0.34 0.9-0.613 1.48-0.82 0.58-0.207 1.227-0.31 1.94-0.31v0c0.733 0 1.387 0.103 1.96 0.31 0.58 0.207 1.073 0.48 1.48 0.82 0.407 0.34 0.72 0.743 0.94 1.21 0.22 0.46 0.33 0.96 0.33 1.5v0c0 0.52-0.11 1.01-0.33 1.47-0.22 0.467-0.533 0.877-0.94 1.23-0.407 0.347-0.9 0.623-1.48 0.83-0.573 0.2-1.227 0.3-1.96 0.3zM278.34 44.02v-28.81h7.22v28.81zM292.84 40.65l3.12-5.47c1.953 1.173 4.103 2.037 6.45 2.59 2.34 0.553 4.74 0.83 7.2 0.83v0c1.66 0 3.043-0.113 4.15-0.34 1.107-0.227 1.993-0.52 2.66-0.88 0.667-0.36 1.14-0.767 1.42-1.22 0.273-0.453 0.41-0.917 0.41-1.39v0c0-0.687-0.297-1.273-0.89-1.76-0.593-0.487-1.573-0.73-2.94-0.73v0c-0.633 0-1.317 0.04-2.05 0.12-0.733 0.08-1.503 0.167-2.31 0.26-0.807 0.087-1.643 0.17-2.51 0.25-0.873 0.08-1.757 0.12-2.65 0.12v0c-1.953 0-3.617-0.21-4.99-0.63-1.38-0.427-2.5-1.003-3.36-1.73-0.86-0.733-1.487-1.6-1.88-2.6-0.393-1.007-0.59-2.087-0.59-3.24v0c0-1.467 0.343-2.817 1.03-4.05 0.68-1.24 1.657-2.31 2.93-3.21 1.267-0.907 2.8-1.61 4.6-2.11 1.8-0.507 3.807-0.76 6.02-0.76v0c1.153 0 2.36 0.07 3.62 0.21 1.267 0.133 2.51 0.317 3.73 0.55 1.22 0.227 2.39 0.49 3.51 0.79 1.127 0.3 2.12 0.62 2.98 0.96v0l-2.27 5.62c-1.84-0.687-3.673-1.227-5.5-1.62-1.833-0.4-3.72-0.6-5.66-0.6v0c-1.347 0-2.49 0.1-3.43 0.3-0.933 0.207-1.693 0.477-2.28 0.81-0.587 0.333-1.013 0.717-1.28 1.15-0.267 0.427-0.4 0.877-0.4 1.35v0c0 0.34 0.067 0.65 0.2 0.93 0.14 0.273 0.37 0.513 0.69 0.72 0.313 0.2 0.727 0.353 1.24 0.46 0.513 0.107 1.143 0.16 1.89 0.16v0c0.687 0 1.413-0.04 2.18-0.12 0.76-0.08 1.557-0.167 2.39-0.26 0.827-0.087 1.687-0.17 2.58-0.25 0.887-0.087 1.793-0.13 2.72-0.13v0c1.727 0 3.237 0.203 4.53 0.61 1.293 0.407 2.363 0.977 3.21 1.71 0.847 0.733 1.48 1.597 1.9 2.59 0.427 0.993 0.64 2.077 0.64 3.25v0c0 1.513-0.35 2.92-1.05 4.22-0.7 1.3-1.743 2.427-3.13 3.38-1.38 0.953-3.1 1.7-5.16 2.24-2.06 0.533-4.44 0.8-7.14 0.8v0c-1.66 0-3.263-0.1-4.81-0.3-1.547-0.207-3.02-0.483-4.42-0.83-1.4-0.353-2.713-0.767-3.94-1.24-1.233-0.467-2.353-0.97-3.36-1.51zM336.69 44.02v-23.39h-6.96v-5.42h6.96v-8.96h7.22v8.96h6.96v5.42h-6.96v23.39zM355.92 34.94v0c0-1.387 0.303-2.65 0.91-3.79 0.6-1.14 1.503-2.12 2.71-2.94 1.2-0.82 2.7-1.453 4.5-1.9 1.8-0.447 3.897-0.67 6.29-0.67v0c1.773 0 3.64 0.13 5.6 0.39 1.96 0.26 3.983 0.657 6.07 1.19v0c-0.08-0.907-0.357-1.747-0.83-2.52-0.473-0.773-1.13-1.443-1.97-2.01-0.833-0.56-1.84-0.993-3.02-1.3-1.18-0.313-2.52-0.47-4.02-0.47v0c-0.813 0-1.71 0.05-2.69 0.15-0.973 0.1-1.98 0.247-3.02 0.44-1.047 0.193-2.077 0.437-3.09 0.73-1.02 0.293-1.97 0.643-2.85 1.05v0l-2.19-5.93c1.087-0.393 2.253-0.75 3.5-1.07 1.247-0.327 2.52-0.61 3.82-0.85 1.3-0.233 2.603-0.417 3.91-0.55 1.3-0.127 2.56-0.19 3.78-0.19v0c5.387 0 9.39 1.373 12.01 4.12 2.62 2.753 3.93 6.97 3.93 12.65v0 12.55h-7.22v-2.71c-0.753 0.44-1.573 0.857-2.46 1.25-0.887 0.387-1.85 0.727-2.89 1.02-1.04 0.293-2.16 0.527-3.36 0.7-1.193 0.167-2.457 0.25-3.79 0.25v0c-2.247 0-4.22-0.243-5.92-0.73-1.7-0.487-3.12-1.163-4.26-2.03-1.14-0.86-2-1.873-2.58-3.04-0.58-1.16-0.87-2.423-0.87-3.79zM363.54 34.69v0c0 0.473 0.123 0.927 0.37 1.36 0.24 0.433 0.63 0.817 1.17 1.15 0.54 0.333 1.227 0.6 2.06 0.8 0.84 0.207 1.853 0.31 3.04 0.31v0c1.273 0 2.503-0.113 3.69-0.34 1.187-0.233 2.293-0.537 3.32-0.91 1.027-0.373 1.953-0.803 2.78-1.29 0.833-0.487 1.527-0.993 2.08-1.52v0-1.27c-1.107-0.307-2.203-0.567-3.29-0.78-1.08-0.207-2.113-0.373-3.1-0.5-0.98-0.12-1.907-0.203-2.78-0.25-0.873-0.053-1.633-0.08-2.28-0.08v0c-1.353 0-2.477 0.09-3.37 0.27-0.893 0.18-1.62 0.42-2.18 0.72-0.553 0.3-0.943 0.653-1.17 1.06-0.227 0.407-0.34 0.83-0.34 1.27zM398.82 44.02v-28.81h7.23v2.44c1.92-1.087 3.753-1.85 5.5-2.29 1.753-0.44 3.467-0.66 5.14-0.66v0c2.2 0 4.233 0.32 6.1 0.96 1.873 0.647 3.493 1.603 4.86 2.87 1.367 1.273 2.437 2.857 3.21 4.75 0.773 1.893 1.16 4.087 1.16 6.58v0 14.16h-7.2v-12.99c0-1.58-0.223-2.99-0.67-4.23-0.447-1.247-1.09-2.297-1.93-3.15-0.84-0.86-1.857-1.513-3.05-1.96-1.2-0.447-2.54-0.67-4.02-0.67v0c-0.78 0-1.58 0.083-2.4 0.25-0.827 0.16-1.633 0.39-2.42 0.69-0.787 0.3-1.547 0.673-2.28 1.12-0.733 0.453-1.4 0.963-2 1.53v0 19.41zM445.23 44.02v-23.39h-6.96v-5.42h6.96v-8.96h7.23v8.96h6.96v5.42h-6.96v23.39z" data-fill-palette-color="quaternary" fill="#ffffff" opacity="1"></path></g></svg></g></svg></g></svg></g></svg></g><g transform="matrix(1,0,0,1,42.1823357253288,0)"><svg viewBox="0 0 107.63532854934238 76.35198958103902" height="76.35198958103902" width="107.63532854934238"><g><svg xmlns="http://www.w3.org/2000/svg" xmlns:xlink="http://www.w3.org/1999/xlink" version="1.1" x="0" y="0" viewBox="-26.20117950439453 5.765819549560547 122.19805145263672 86.68217468261719" enable-background="new -27.833 3.167 125 91" xml:space="preserve" height="76.35198958103902" width="107.63532854934238" class="icon-icon-0" data-fill-palette-color="quaternary" id="icon-0"><circle cx="-9.811" cy="12.56" r="6.7" fill="#ffffff" data-fill-palette-color="quaternary"></circle><path d="M-5.193 22.815c-3.451-2.064-7.406-2.066-10.848-0.007-7.022 4.203-10.789 15.785-10.074 30.981 0.068 1.451 1.299 2.572 2.75 2.504 1.451-0.066 2.572-1.299 2.504-2.75-0.331-7.066 0.36-13.33 2-18.113 0.198-0.58 0.411-1.137 0.638-1.67v22.344h0.023v33.134c0 1.761 1.428 3.188 3.188 3.188 1.762 0 3.189-1.428 3.189-3.188V56.104h2.345v33.156c0 1.76 1.428 3.188 3.189 3.188 1.76 0 3.188-1.429 3.188-3.188V56.104h0.021V33.534c0.271 0.614 0.523 1.261 0.759 1.938 1.656 4.789 2.356 11.039 2.029 18.074-0.068 1.451 1.053 2.684 2.504 2.75C2.255 56.298 2.295 56.3 2.337 56.3c1.397 0 2.56-1.1 2.626-2.508C5.672 38.625 1.875 27.045-5.193 22.815z" fill="#ffffff" data-fill-palette-color="quaternary"></path><path d="M94.693 38.581C88.893 15.373 65.373 1.267 42.167 7.07c-8.518 2.131-15.802 6.653-21.334 12.665l-20.77-2.477 12.392 15.776c-3.271 8.163-4.1 17.386-1.805 26.566 5.8 23.205 29.318 37.313 52.527 31.509C86.385 85.306 100.496 61.786 94.693 38.581zM62.187 87.143C41.2 92.39 19.862 79.589 14.616 58.609c-2.011-8.045-1.447-16.362 1.634-24.058 0.323-0.811 0.373-1.688 0.169-2.509-0.136-0.55-0.39-1.073-0.75-1.532l-6.303-8.025 10.985 1.309c1.303 0.155 2.602-0.324 3.489-1.291 5.19-5.636 11.871-9.602 19.319-11.464 20.983-5.251 42.325 7.549 47.57 28.533C95.977 60.557 83.168 81.895 62.187 87.143z" fill="#ffffff" data-fill-palette-color="quaternary"></path><path d="M78.511 49.075c-0.047-0.114-0.069-0.165-0.077-0.186C78.444 48.917 78.478 48.994 78.511 49.075c-0.967-2.393-3.977-1.196-5.854-0.474-2.854 0.795-5.797 1.322-8.76 1.445-3.022 0.124-11.438 0.012-12.744-3.799 2.063-1.61 13.198 3.525 11.494-2.661-0.623-2.921-9.552-4.279-12.143-4.279-8.226-0.544-16.673 0.006-24.921 0.006v11.675h11.817c0.709 0.001 4.208 3.93 5.281 4.52 6.15 3.369 13.706 2.93 20.346 1.54C66.092 56.41 80.494 53.84 78.511 49.075 78.58 49.243 78.649 49.412 78.511 49.075z" fill="#ffffff" data-fill-palette-color="quaternary"></path></svg></g></svg></g><g></g></svg></g></svg></g></svg></g></svg><rect width="320" height="360" fill="none" stroke="none" visibility="hidden"></rect></g></svg></g></svg>